<?xml version="1.0" encoding="UTF-8" standalone="no"?>
<!DOCTYPE svg PUBLIC "-//W3C//DTD SVG 1.1//EN"
 "http://www.w3.org/Graphics/SVG/1.1/DTD/svg11.dtd">
<!-- Generated by graphviz version 2.38.0 (20140413.2041)
 -->
<!-- Title: G Pages: 1 -->
<svg width="2089pt" height="706pt"
 viewBox="0.00 0.00 2089.00 706.00" xmlns="http://www.w3.org/2000/svg" xmlns:xlink="http://www.w3.org/1999/xlink">
<g id="graph0" class="graph" transform="scale(1 1) rotate(0) translate(4 702)">
<title>G</title>
<polygon fill="white" stroke="none" points="-4,4 -4,-702 2085,-702 2085,4 -4,4"/>
<g id="clust1" class="cluster"><title>cluster1</title>
<polygon fill="none" stroke="black" points="0,-8 0,-690 2073,-690 2073,-8 0,-8"/>
<g id="a_clust1_0"><a xlink:href="1" xlink:title="&lt;TABLE&gt;">
<text text-anchor="start" x="962.5" y="-670.3" font-family="Times,serif" font-size="14.00"> &lt;&lt;package&gt;&gt; com</text>
</a>
</g>
</g>
<g id="clust2" class="cluster"><title>cluster2</title>
<polygon fill="none" stroke="black" points="8,-16 8,-607 2065,-607 2065,-16 8,-16"/>
<g id="a_clust2_1"><a xlink:href="2" xlink:title="&lt;TABLE&gt;">
<text text-anchor="start" x="954.5" y="-587.3" font-family="Times,serif" font-size="14.00"> &lt;&lt;package&gt;&gt; mywm</text>
</a>
</g>
</g>
<g id="clust3" class="cluster"><title>cluster3</title>
<polygon fill="none" stroke="black" points="950,-391 950,-568 2057,-568 2057,-391 950,-391"/>
<g id="a_clust3_2"><a xlink:href="3" xlink:title="&lt;TABLE&gt;">
<text text-anchor="start" x="1423.5" y="-548.3" font-family="Times,serif" font-size="14.00"> &lt;&lt;package&gt;&gt; model</text>
</a>
</g>
</g>
<g id="clust4" class="cluster"><title>cluster4</title>
<polygon fill="none" stroke="black" points="1623,-442 1623,-525 1788,-525 1788,-442 1623,-442"/>
<g id="a_clust4_3"><a xlink:href="4" xlink:title="&lt;TABLE&gt;">
<text text-anchor="start" x="1635.5" y="-505.3" font-family="Times,serif" font-size="14.00"> &lt;&lt;package&gt;&gt; dto</text>
</a>
</g>
</g>
<g id="clust5" class="cluster"><title>cluster157</title>
<polygon fill="none" stroke="black" points="958,-399 958,-529 1423,-529 1423,-399 958,-399"/>
<g id="a_clust5_4"><a xlink:href="157" xlink:title="&lt;TABLE&gt;">
<text text-anchor="start" x="1119.5" y="-509.3" font-family="Times,serif" font-size="14.00"> &lt;&lt;package&gt;&gt; dao</text>
</a>
</g>
</g>
<g id="clust6" class="cluster"><title>cluster158</title>
<polygon fill="none" stroke="black" points="966,-407 966,-490 1177,-490 1177,-407 966,-407"/>
<g id="a_clust6_5"><a xlink:href="158" xlink:title="&lt;TABLE&gt;">
<text text-anchor="start" x="978.5" y="-470.3" font-family="Times,serif" font-size="14.00"> &lt;&lt;package&gt;&gt; hibernate</text>
</a>
</g>
</g>
<g id="clust7" class="cluster"><title>cluster37</title>
<polygon fill="none" stroke="black" points="16,-68 16,-383 1505,-383 1505,-68 16,-68"/>
<g id="a_clust7_6"><a xlink:href="37" xlink:title="&lt;TABLE&gt;">
<text text-anchor="start" x="666.5" y="-363.3" font-family="Times,serif" font-size="14.00"> &lt;&lt;package&gt;&gt; controller</text>
</a>
</g>
</g>
<g id="clust8" class="cluster"><title>cluster120</title>
<polygon fill="none" stroke="black" points="1036,-119 1036,-249 1497,-249 1497,-119 1036,-119"/>
<g id="a_clust8_7"><a xlink:href="120" xlink:title="&lt;TABLE&gt;">
<text text-anchor="start" x="1192.5" y="-229.3" font-family="Times,serif" font-size="14.00"> &lt;&lt;package&gt;&gt; mail</text>
</a>
</g>
</g>
<g id="clust9" class="cluster"><title>cluster121</title>
<polygon fill="none" stroke="black" points="1287,-127 1287,-210 1489,-210 1489,-127 1287,-127"/>
<g id="a_clust9_8"><a xlink:href="121" xlink:title="&lt;TABLE&gt;">
<text text-anchor="start" x="1299" y="-190.3" font-family="Times,serif" font-size="14.00"> &lt;&lt;package&gt;&gt; javamail</text>
</a>
</g>
</g>
<g id="clust10" class="cluster"><title>cluster38</title>
<polygon fill="none" stroke="black" points="24,-261 24,-344 217,-344 217,-261 24,-261"/>
<g id="a_clust10_9"><a xlink:href="38" xlink:title="&lt;TABLE&gt;">
<text text-anchor="start" x="36.5" y="-324.3" font-family="Times,serif" font-size="14.00"> &lt;&lt;package&gt;&gt; actions</text>
</a>
</g>
</g>
<g id="clust11" class="cluster"><title>cluster193</title>
<polygon fill="none" stroke="black" points="402,-76 402,-206 856,-206 856,-76 402,-76"/>
<g id="a_clust11_10"><a xlink:href="193" xlink:title="&lt;TABLE&gt;">
<text text-anchor="start" x="539" y="-186.3" font-family="Times,serif" font-size="14.00"> &lt;&lt;package&gt;&gt; schedule</text>
</a>
</g>
</g>
<g id="clust12" class="cluster"><title>cluster194</title>
<polygon fill="none" stroke="black" points="660,-84 660,-167 848,-167 848,-84 660,-84"/>
<g id="a_clust12_11"><a xlink:href="194" xlink:title="&lt;TABLE&gt;">
<text text-anchor="start" x="672" y="-147.3" font-family="Times,serif" font-size="14.00"> &lt;&lt;package&gt;&gt; quartz</text>
</a>
</g>
</g>
<g id="clust13" class="cluster"><title>cluster433</title>
<polygon fill="none" stroke="black" points="35,-170 35,-253 206,-253 206,-170 35,-170"/>
<g id="a_clust13_12"><a xlink:href="433" xlink:title="&lt;TABLE&gt;">
<text text-anchor="start" x="47.5" y="-233.3" font-family="Times,serif" font-size="14.00"> &lt;&lt;package&gt;&gt; ajax</text>
</a>
</g>
</g>
<g id="clust14" class="cluster"><title>cluster283</title>
<polygon fill="none" stroke="black" points="402,-214 402,-344 878,-344 878,-214 402,-214"/>
<g id="a_clust14_13"><a xlink:href="283" xlink:title="&lt;TABLE&gt;">
<text text-anchor="start" x="559" y="-324.3" font-family="Times,serif" font-size="14.00"> &lt;&lt;package&gt;&gt; report</text>
</a>
</g>
</g>
<g id="clust15" class="cluster"><title>cluster284</title>
<polygon fill="none" stroke="black" points="639,-222 639,-305 870,-305 870,-222 639,-222"/>
<g id="a_clust15_14"><a xlink:href="284" xlink:title="&lt;TABLE&gt;">
<text text-anchor="start" x="651.5" y="-285.3" font-family="Times,serif" font-size="14.00"> &lt;&lt;package&gt;&gt; jasperreport</text>
</a>
</g>
</g>
<g id="clust16" class="cluster"><title>cluster440</title>
<polygon fill="none" stroke="black" points="354,-404 354,-487 520,-487 520,-404 354,-404"/>
<g id="a_clust16_15"><a xlink:href="440" xlink:title="&lt;TABLE&gt;">
<text text-anchor="start" x="366" y="-467.3" font-family="Times,serif" font-size="14.00"> &lt;&lt;package&gt;&gt; util</text>
</a>
</g>
</g>
<!-- nodeCluster1 -->
<g id="node1" class="node"><title>nodeCluster1</title>
</g>
<!-- nodeCluster2 -->
<g id="node2" class="node"><title>nodeCluster2</title>
</g>
<!-- nodeCluster3 -->
<g id="node3" class="node"><title>nodeCluster3</title>
</g>
<!-- nodeCluster4 -->
<g id="node4" class="node"><title>nodeCluster4</title>
</g>
<!-- nodeCluster4&#45;&gt;nodeCluster3 -->
<g id="edge22" class="edge"><title>nodeCluster4&#45;&gt;nodeCluster3</title>
<path fill="none" stroke="black" stroke-width="2" stroke-dasharray="1,5" d="M1787.87,-454.744C1852.54,-444.275 1939.5,-430.196 1986.82,-422.533"/>
<ellipse fill="black" stroke="black" stroke-width="2" cx="1990.98" cy="-421.861" rx="4.00001" ry="4.00001"/>
</g>
<!-- nodeCluster157 -->
<g id="node5" class="node"><title>nodeCluster157</title>
</g>
<!-- nodeCluster157&#45;&gt;nodeCluster3 -->
<g id="edge5" class="edge"><title>nodeCluster157&#45;&gt;nodeCluster3</title>
<path fill="none" stroke="black" stroke-width="2" stroke-dasharray="1,5" d="M1422.82,-435.93C1532.29,-432.466 1876.22,-421.582 1986.56,-418.09"/>
<ellipse fill="black" stroke="black" stroke-width="2" cx="1990.89" cy="-417.953" rx="4" ry="4"/>
</g>
<!-- nodeCluster157&#45;&gt;nodeCluster4 -->
<g id="edge15" class="edge"><title>nodeCluster157&#45;&gt;nodeCluster4</title>
<path fill="none" stroke="black" stroke-width="2" stroke-dasharray="1,5" d="M1422.55,-440.302C1468.01,-444.776 1550.86,-452.929 1614.94,-459.236"/>
<ellipse fill="black" stroke="black" stroke-width="2" cx="1619.12" cy="-459.647" rx="4" ry="4"/>
</g>
<!-- nodeCluster158 -->
<g id="node6" class="node"><title>nodeCluster158</title>
</g>
<!-- nodeCluster158&#45;&gt;nodeCluster3 -->
<g id="edge17" class="edge"><title>nodeCluster158&#45;&gt;nodeCluster3</title>
<path fill="none" stroke="black" stroke-width="2" stroke-dasharray="1,5" d="M1176.84,-416.582C1211.79,-411.849 1250.98,-407.335 1287,-405 1556.32,-387.536 1882.33,-407.176 1986.95,-414.485"/>
<ellipse fill="black" stroke="black" stroke-width="2" cx="1990.97" cy="-414.768" rx="4" ry="4"/>
</g>
<!-- nodeCluster158&#45;&gt;nodeCluster4 -->
<g id="edge18" class="edge"><title>nodeCluster158&#45;&gt;nodeCluster4</title>
<path fill="none" stroke="black" stroke-width="2" stroke-dasharray="1,5" d="M1176.57,-454.086C1211.53,-460.177 1250.8,-465.99 1287,-469 1383.56,-477.028 1408.11,-469.243 1505,-469 1541.01,-468.91 1580.69,-468.727 1615.08,-468.542"/>
<ellipse fill="black" stroke="black" stroke-width="2" cx="1619.24" cy="-468.52" rx="4" ry="4"/>
</g>
<!-- nodeCluster158&#45;&gt;nodeCluster157 -->
<g id="edge10" class="edge"><title>nodeCluster158&#45;&gt;nodeCluster157</title>
<path fill="none" stroke="black" stroke-width="2" stroke-dasharray="1,5" d="M1176.74,-434.33C1237.83,-435.106 1310.89,-436.033 1352.82,-436.566"/>
<ellipse fill="black" stroke="black" stroke-width="2" cx="1356.92" cy="-436.618" rx="4" ry="4"/>
</g>
<!-- nodeCluster37 -->
<g id="node7" class="node"><title>nodeCluster37</title>
</g>
<!-- nodeCluster120 -->
<g id="node8" class="node"><title>nodeCluster120</title>
</g>
<!-- nodeCluster121 -->
<g id="node9" class="node"><title>nodeCluster121</title>
</g>
<!-- nodeCluster120&#45;&gt;nodeCluster121 -->
<g id="edge4" class="edge"><title>nodeCluster120&#45;&gt;nodeCluster121</title>
<path fill="none" stroke="black" stroke-width="2" stroke-dasharray="1,5" d="M1098.05,-154.177C1137.45,-157.053 1214.49,-158.625 1279.11,-158.416"/>
<ellipse fill="black" stroke="black" stroke-width="2" cx="1283.33" cy="-158.397" rx="4" ry="4"/>
</g>
<!-- nodeCluster121&#45;&gt;nodeCluster120 -->
<g id="edge13" class="edge"><title>nodeCluster121&#45;&gt;nodeCluster120</title>
<path fill="none" stroke="black" stroke-width="2" stroke-dasharray="1,5" d="M1287.33,-145.723C1225.24,-144.185 1149.24,-144.107 1106.14,-145.932"/>
<ellipse fill="black" stroke="black" stroke-width="2" cx="1102.04" cy="-146.128" rx="4" ry="4"/>
</g>
<!-- nodeCluster38 -->
<g id="node10" class="node"><title>nodeCluster38</title>
</g>
<!-- nodeCluster38&#45;&gt;nodeCluster1 -->
<g id="edge16" class="edge"><title>nodeCluster38&#45;&gt;nodeCluster1</title>
<path fill="none" stroke="black" stroke-width="2" stroke-dasharray="1,5" d="M172.555,-343.661C219.763,-395.541 291.572,-474.446 354,-543 374.154,-565.132 397.102,-590.318 413.586,-608.407"/>
<ellipse fill="black" stroke="black" stroke-width="2" cx="416.656" cy="-611.775" rx="4.00002" ry="4.00002"/>
</g>
<!-- nodeCluster38&#45;&gt;nodeCluster3 -->
<g id="edge1" class="edge"><title>nodeCluster38&#45;&gt;nodeCluster3</title>
<path fill="none" stroke="black" stroke-width="2" stroke-dasharray="1,5" d="M216.957,-316.591C258.672,-328.288 308.352,-340.665 354,-348 529.431,-376.188 575.319,-373 753,-373 753,-373 753,-373 1389,-373 1511.16,-373 1646.29,-381.283 1760.13,-390.661"/>
<ellipse fill="black" stroke="black" stroke-width="2" cx="1764.31" cy="-391.007" rx="4" ry="4"/>
</g>
<!-- nodeCluster38&#45;&gt;nodeCluster4 -->
<g id="edge19" class="edge"><title>nodeCluster38&#45;&gt;nodeCluster4</title>
<path fill="none" stroke="black" stroke-width="2" stroke-dasharray="1,5" d="M167.871,-343.914C210.894,-391.839 279.163,-457.742 354,-491 517.172,-563.515 574.441,-538 753,-538 753,-538 753,-538 1072,-538 1266.62,-538 1492.92,-504.801 1614.97,-484.129"/>
<ellipse fill="black" stroke="black" stroke-width="2" cx="1619.27" cy="-483.397" rx="4.00001" ry="4.00001"/>
</g>
<!-- nodeCluster38&#45;&gt;nodeCluster158 -->
<g id="edge2" class="edge"><title>nodeCluster38&#45;&gt;nodeCluster158</title>
<path fill="none" stroke="red" stroke-width="5" stroke-dasharray="1,5" d="M216.982,-331.873C258.269,-349.219 307.621,-367.409 354,-378 411.197,-391.061 771.397,-414.651 958.08,-426.225"/>
<ellipse fill="red" stroke="red" stroke-width="5" cx="962.296" cy="-426.486" rx="4" ry="4"/>
</g>
<!-- nodeCluster193 -->
<g id="node11" class="node"><title>nodeCluster193</title>
</g>
<!-- nodeCluster38&#45;&gt;nodeCluster193 -->
<g id="edge9" class="edge"><title>nodeCluster38&#45;&gt;nodeCluster193</title>
<path fill="none" stroke="black" stroke-width="2" stroke-dasharray="1,5" d="M207.134,-261.14C210.488,-259.8 213.788,-258.419 217,-257 282.096,-228.249 352.269,-184.795 395.173,-156.655"/>
<ellipse fill="black" stroke="black" stroke-width="2" cx="398.74" cy="-154.304" rx="4.00002" ry="4.00002"/>
</g>
<!-- nodeCluster283 -->
<g id="node14" class="node"><title>nodeCluster283</title>
</g>
<!-- nodeCluster38&#45;&gt;nodeCluster283 -->
<g id="edge6" class="edge"><title>nodeCluster38&#45;&gt;nodeCluster283</title>
<path fill="none" stroke="black" stroke-width="2" stroke-dasharray="1,5" d="M216.896,-280.911C279.63,-276.928 357.843,-271.962 401.824,-269.17"/>
<ellipse fill="black" stroke="black" stroke-width="2" cx="400.704" cy="-272.44" rx="4.0002" ry="4.0002"/>
</g>
<!-- nodeCluster440 -->
<g id="node16" class="node"><title>nodeCluster440</title>
</g>
<!-- nodeCluster38&#45;&gt;nodeCluster440 -->
<g id="edge24" class="edge"><title>nodeCluster38&#45;&gt;nodeCluster440</title>
<path fill="none" stroke="black" stroke-width="2" stroke-dasharray="1,5" d="M216.721,-334.524C258.551,-354.79 308.383,-378.264 354,-398 356.463,-399.066 358.975,-400.136 361.516,-401.205"/>
<ellipse fill="black" stroke="black" stroke-width="2" cx="365.516" cy="-402.867" rx="4.00001" ry="4.00001"/>
</g>
<!-- nodeCluster194 -->
<g id="node12" class="node"><title>nodeCluster194</title>
</g>
<!-- nodeCluster193&#45;&gt;nodeCluster194 -->
<g id="edge20" class="edge"><title>nodeCluster193&#45;&gt;nodeCluster194</title>
<path fill="none" stroke="black" stroke-width="2" stroke-dasharray="1,5" d="M464.046,-131.358C504.833,-131.486 585.933,-127.402 651.858,-122.451"/>
<ellipse fill="black" stroke="black" stroke-width="2" cx="656.241" cy="-122.116" rx="4" ry="4"/>
</g>
<!-- nodeCluster194&#45;&gt;nodeCluster3 -->
<g id="edge12" class="edge"><title>nodeCluster194&#45;&gt;nodeCluster3</title>
<path fill="none" stroke="black" stroke-width="2" stroke-dasharray="1,5" d="M847.975,-96.902C991.867,-79.8772 1275.82,-59.2916 1505,-123 1700.65,-177.389 1900.69,-322.116 1982.54,-385.979"/>
<ellipse fill="black" stroke="black" stroke-width="2" cx="1986.02" cy="-388.702" rx="4.00002" ry="4.00002"/>
</g>
<!-- nodeCluster194&#45;&gt;nodeCluster158 -->
<g id="edge11" class="edge"><title>nodeCluster194&#45;&gt;nodeCluster158</title>
<path fill="none" stroke="red" stroke-width="5" stroke-dasharray="1,5" d="M822.571,-166.723C840.961,-182.856 860.598,-200.743 878,-218 940.304,-279.784 1007.33,-357.79 1043.38,-400.815"/>
<ellipse fill="red" stroke="red" stroke-width="5" cx="1046.12" cy="-404.089" rx="4.00002" ry="4.00002"/>
</g>
<!-- nodeCluster194&#45;&gt;nodeCluster120 -->
<g id="edge7" class="edge"><title>nodeCluster194&#45;&gt;nodeCluster120</title>
<path fill="none" stroke="black" stroke-width="2" stroke-dasharray="1,5" d="M847.729,-121.775C910.977,-129.807 991.1,-139.981 1035.82,-145.66"/>
<ellipse fill="black" stroke="black" stroke-width="2" cx="1032.05" cy="-145.046" rx="4.00033" ry="4.00033"/>
</g>
<!-- nodeCluster194&#45;&gt;nodeCluster193 -->
<g id="edge21" class="edge"><title>nodeCluster194&#45;&gt;nodeCluster193</title>
<path fill="none" stroke="black" stroke-width="2" stroke-dasharray="1,5" d="M660.223,-109.381C596.967,-112.091 516.849,-117.532 472.142,-122.548"/>
<ellipse fill="black" stroke="black" stroke-width="2" cx="468.018" cy="-123.033" rx="4.00001" ry="4.00001"/>
</g>
<!-- nodeCluster433 -->
<g id="node13" class="node"><title>nodeCluster433</title>
</g>
<!-- nodeCluster433&#45;&gt;nodeCluster158 -->
<g id="edge14" class="edge"><title>nodeCluster433&#45;&gt;nodeCluster158</title>
<path fill="none" stroke="red" stroke-width="5" stroke-dasharray="1,5" d="M205.768,-249.731C209.568,-252.181 213.326,-254.613 217,-257 278.295,-296.826 285.198,-323.313 354,-348 409.091,-367.767 819.974,-394.332 878,-402 903.983,-405.434 931.861,-409.635 958.096,-413.823"/>
<ellipse fill="red" stroke="red" stroke-width="5" cx="962.232" cy="-414.487" rx="4.00001" ry="4.00001"/>
</g>
<!-- nodeCluster284 -->
<g id="node15" class="node"><title>nodeCluster284</title>
</g>
<!-- nodeCluster283&#45;&gt;nodeCluster284 -->
<g id="edge23" class="edge"><title>nodeCluster283&#45;&gt;nodeCluster284</title>
<path fill="none" stroke="black" stroke-width="2" stroke-dasharray="1,5" d="M464.046,-269.358C500.616,-269.473 569.594,-266.201 630.984,-261.955"/>
<ellipse fill="black" stroke="black" stroke-width="2" cx="635.214" cy="-261.658" rx="4" ry="4"/>
</g>
<!-- nodeCluster284&#45;&gt;nodeCluster158 -->
<g id="edge3" class="edge"><title>nodeCluster284&#45;&gt;nodeCluster158</title>
<path fill="none" stroke="black" stroke-width="2" stroke-dasharray="1,5" d="M851.341,-304.581C906.541,-337 973.607,-376.388 1018.79,-402.925"/>
<ellipse fill="black" stroke="black" stroke-width="2" cx="1022.58" cy="-405.148" rx="4.00002" ry="4.00002"/>
</g>
<!-- nodeCluster284&#45;&gt;nodeCluster283 -->
<g id="edge8" class="edge"><title>nodeCluster284&#45;&gt;nodeCluster283</title>
<path fill="none" stroke="black" stroke-width="2" stroke-dasharray="1,5" d="M639.197,-248.351C580.069,-251.262 512.019,-256.073 472.142,-260.548"/>
<ellipse fill="black" stroke="black" stroke-width="2" cx="468.018" cy="-261.033" rx="4.00001" ry="4.00001"/>
</g>
</g>
</svg>
