<?xml version="1.0" encoding="UTF-8" standalone="no"?>
<!DOCTYPE svg PUBLIC "-//W3C//DTD SVG 1.1//EN"
 "http://www.w3.org/Graphics/SVG/1.1/DTD/svg11.dtd">
<!-- Generated by graphviz version 2.38.0 (20140413.2041)
 -->
<!-- Title: G Pages: 1 -->
<svg width="2569pt" height="722pt"
 viewBox="0.00 0.00 2569.00 722.00" xmlns="http://www.w3.org/2000/svg" xmlns:xlink="http://www.w3.org/1999/xlink">
<g id="graph0" class="graph" transform="scale(1 1) rotate(0) translate(4 718)">
<title>G</title>
<polygon fill="white" stroke="none" points="-4,4 -4,-718 2565,-718 2565,4 -4,4"/>
<g id="clust1" class="cluster"><title>cluster1</title>
<polygon fill="none" stroke="black" points="0,-8 0,-706 2553,-706 2553,-8 0,-8"/>
<g id="a_clust1_0"><a xlink:href="1" xlink:title="&lt;TABLE&gt;">
<text text-anchor="start" x="1202.5" y="-686.3" font-family="Times,serif" font-size="14.00"> &lt;&lt;package&gt;&gt; com</text>
</a>
</g>
</g>
<g id="clust2" class="cluster"><title>cluster2</title>
<polygon fill="none" stroke="black" points="8,-16 8,-623 2545,-623 2545,-16 8,-16"/>
<g id="a_clust2_1"><a xlink:href="2" xlink:title="&lt;TABLE&gt;">
<text text-anchor="start" x="1194.5" y="-603.3" font-family="Times,serif" font-size="14.00"> &lt;&lt;package&gt;&gt; mywm</text>
</a>
</g>
</g>
<g id="clust3" class="cluster"><title>cluster3</title>
<polygon fill="none" stroke="black" points="1190,-391 1190,-584 2537,-584 2537,-391 1190,-391"/>
<g id="a_clust3_2"><a xlink:href="3" xlink:title="&lt;TABLE&gt;">
<text text-anchor="start" x="1783.5" y="-564.3" font-family="Times,serif" font-size="14.00"> &lt;&lt;package&gt;&gt; model</text>
</a>
</g>
</g>
<g id="clust4" class="cluster"><title>cluster4</title>
<polygon fill="none" stroke="black" points="2023,-462 2023,-545 2188,-545 2188,-462 2023,-462"/>
<g id="a_clust4_3"><a xlink:href="4" xlink:title="&lt;TABLE&gt;">
<text text-anchor="start" x="2035.5" y="-525.3" font-family="Times,serif" font-size="14.00"> &lt;&lt;package&gt;&gt; dto</text>
</a>
</g>
</g>
<g id="clust5" class="cluster"><title>cluster157</title>
<polygon fill="none" stroke="black" points="1198,-399 1198,-529 1743,-529 1743,-399 1198,-399"/>
<g id="a_clust5_4"><a xlink:href="157" xlink:title="&lt;TABLE&gt;">
<text text-anchor="start" x="1399.5" y="-509.3" font-family="Times,serif" font-size="14.00"> &lt;&lt;package&gt;&gt; dao</text>
</a>
</g>
</g>
<g id="clust6" class="cluster"><title>cluster158</title>
<polygon fill="none" stroke="black" points="1206,-407 1206,-490 1417,-490 1417,-407 1206,-407"/>
<g id="a_clust6_5"><a xlink:href="158" xlink:title="&lt;TABLE&gt;">
<text text-anchor="start" x="1218.5" y="-470.3" font-family="Times,serif" font-size="14.00"> &lt;&lt;package&gt;&gt; hibernate</text>
</a>
</g>
</g>
<g id="clust7" class="cluster"><title>cluster37</title>
<polygon fill="none" stroke="black" points="16,-68 16,-383 1825,-383 1825,-68 16,-68"/>
<g id="a_clust7_6"><a xlink:href="37" xlink:title="&lt;TABLE&gt;">
<text text-anchor="start" x="826.5" y="-363.3" font-family="Times,serif" font-size="14.00"> &lt;&lt;package&gt;&gt; controller</text>
</a>
</g>
</g>
<g id="clust8" class="cluster"><title>cluster120</title>
<polygon fill="none" stroke="black" points="1276,-90 1276,-220 1817,-220 1817,-90 1276,-90"/>
<g id="a_clust8_7"><a xlink:href="120" xlink:title="&lt;TABLE&gt;">
<text text-anchor="start" x="1472.5" y="-200.3" font-family="Times,serif" font-size="14.00"> &lt;&lt;package&gt;&gt; mail</text>
</a>
</g>
</g>
<g id="clust9" class="cluster"><title>cluster121</title>
<polygon fill="none" stroke="black" points="1607,-98 1607,-181 1809,-181 1809,-98 1607,-98"/>
<g id="a_clust9_8"><a xlink:href="121" xlink:title="&lt;TABLE&gt;">
<text text-anchor="start" x="1619" y="-161.3" font-family="Times,serif" font-size="14.00"> &lt;&lt;package&gt;&gt; javamail</text>
</a>
</g>
</g>
<g id="clust10" class="cluster"><title>cluster38</title>
<polygon fill="none" stroke="black" points="24,-261 24,-344 217,-344 217,-261 24,-261"/>
<g id="a_clust10_9"><a xlink:href="38" xlink:title="&lt;TABLE&gt;">
<text text-anchor="start" x="36.5" y="-324.3" font-family="Times,serif" font-size="14.00"> &lt;&lt;package&gt;&gt; actions</text>
</a>
</g>
</g>
<g id="clust11" class="cluster"><title>cluster193</title>
<polygon fill="none" stroke="black" points="482,-76 482,-206 1016,-206 1016,-76 482,-76"/>
<g id="a_clust11_10"><a xlink:href="193" xlink:title="&lt;TABLE&gt;">
<text text-anchor="start" x="659" y="-186.3" font-family="Times,serif" font-size="14.00"> &lt;&lt;package&gt;&gt; schedule</text>
</a>
</g>
</g>
<g id="clust12" class="cluster"><title>cluster194</title>
<polygon fill="none" stroke="black" points="820,-84 820,-167 1008,-167 1008,-84 820,-84"/>
<g id="a_clust12_11"><a xlink:href="194" xlink:title="&lt;TABLE&gt;">
<text text-anchor="start" x="832" y="-147.3" font-family="Times,serif" font-size="14.00"> &lt;&lt;package&gt;&gt; quartz</text>
</a>
</g>
</g>
<g id="clust13" class="cluster"><title>cluster433</title>
<polygon fill="none" stroke="black" points="35,-170 35,-253 206,-253 206,-170 35,-170"/>
<g id="a_clust13_12"><a xlink:href="433" xlink:title="&lt;TABLE&gt;">
<text text-anchor="start" x="47.5" y="-233.3" font-family="Times,serif" font-size="14.00"> &lt;&lt;package&gt;&gt; ajax</text>
</a>
</g>
</g>
<g id="clust14" class="cluster"><title>cluster283</title>
<polygon fill="none" stroke="black" points="482,-214 482,-344 1038,-344 1038,-214 482,-214"/>
<g id="a_clust14_13"><a xlink:href="283" xlink:title="&lt;TABLE&gt;">
<text text-anchor="start" x="679" y="-324.3" font-family="Times,serif" font-size="14.00"> &lt;&lt;package&gt;&gt; report</text>
</a>
</g>
</g>
<g id="clust15" class="cluster"><title>cluster284</title>
<polygon fill="none" stroke="black" points="799,-222 799,-305 1030,-305 1030,-222 799,-222"/>
<g id="a_clust15_14"><a xlink:href="284" xlink:title="&lt;TABLE&gt;">
<text text-anchor="start" x="811.5" y="-285.3" font-family="Times,serif" font-size="14.00"> &lt;&lt;package&gt;&gt; jasperreport</text>
</a>
</g>
</g>
<g id="clust16" class="cluster"><title>cluster440</title>
<polygon fill="none" stroke="black" points="434,-419 434,-502 600,-502 600,-419 434,-419"/>
<g id="a_clust16_15"><a xlink:href="440" xlink:title="&lt;TABLE&gt;">
<text text-anchor="start" x="446" y="-482.3" font-family="Times,serif" font-size="14.00"> &lt;&lt;package&gt;&gt; util</text>
</a>
</g>
</g>
<!-- nodeCluster1 -->
<g id="node1" class="node"><title>nodeCluster1</title>
</g>
<!-- nodeCluster2 -->
<g id="node2" class="node"><title>nodeCluster2</title>
</g>
<!-- nodeCluster3 -->
<g id="node3" class="node"><title>nodeCluster3</title>
</g>
<!-- nodeCluster4 -->
<g id="node4" class="node"><title>nodeCluster4</title>
</g>
<!-- nodeCluster4&#45;&gt;nodeCluster3 -->
<g id="edge22" class="edge"><title>nodeCluster4&#45;&gt;nodeCluster3</title>
<path fill="none" stroke="black" stroke-width="2" stroke-dasharray="1,5" d="M2187.8,-473.297C2273.83,-457.833 2405.1,-434.238 2466.76,-423.155"/>
<ellipse fill="black" stroke="black" stroke-width="2" cx="2470.85" cy="-422.42" rx="4.00001" ry="4.00001"/>
<text text-anchor="middle" x="2303.5" y="-456.8" font-family="Times,serif" font-size="14.00">3</text>
</g>
<!-- nodeCluster157 -->
<g id="node5" class="node"><title>nodeCluster157</title>
</g>
<!-- nodeCluster157&#45;&gt;nodeCluster3 -->
<g id="edge5" class="edge"><title>nodeCluster157&#45;&gt;nodeCluster3</title>
<path fill="none" stroke="black" stroke-width="2" stroke-dasharray="1,5" d="M1742.68,-450.512C1872.04,-444.795 2336.27,-424.28 2466.7,-418.516"/>
<ellipse fill="black" stroke="black" stroke-width="2" cx="2470.96" cy="-418.328" rx="4" ry="4"/>
<text text-anchor="middle" x="2105" y="-441.8" font-family="Times,serif" font-size="14.00">7</text>
</g>
<!-- nodeCluster157&#45;&gt;nodeCluster4 -->
<g id="edge15" class="edge"><title>nodeCluster157&#45;&gt;nodeCluster4</title>
<path fill="none" stroke="black" stroke-width="2" stroke-dasharray="1,5" d="M1742.87,-455.087C1802.69,-460.539 1928.86,-472.037 2015.03,-479.892"/>
<ellipse fill="black" stroke="black" stroke-width="2" cx="2019.08" cy="-480.26" rx="4" ry="4"/>
<text text-anchor="middle" x="1906.5" y="-473.8" font-family="Times,serif" font-size="14.00">12</text>
</g>
<!-- nodeCluster158 -->
<g id="node6" class="node"><title>nodeCluster158</title>
</g>
<!-- nodeCluster158&#45;&gt;nodeCluster3 -->
<g id="edge17" class="edge"><title>nodeCluster158&#45;&gt;nodeCluster3</title>
<path fill="none" stroke="black" stroke-width="2" stroke-dasharray="1,5" d="M1416.72,-424.528C1443.83,-422.673 1472.99,-420.973 1500,-420 1878.59,-406.358 2338.25,-413.774 2466.39,-416.277"/>
<ellipse fill="black" stroke="black" stroke-width="2" cx="2470.7" cy="-416.362" rx="4" ry="4"/>
<text text-anchor="middle" x="1906.5" y="-416.8" font-family="Times,serif" font-size="14.00">10</text>
</g>
<!-- nodeCluster158&#45;&gt;nodeCluster4 -->
<g id="edge18" class="edge"><title>nodeCluster158&#45;&gt;nodeCluster4</title>
<path fill="none" stroke="black" stroke-width="2" stroke-dasharray="1,5" d="M1416.73,-478.117C1443.39,-487.578 1472.34,-496.152 1500,-501 1680.91,-532.712 1896.93,-514.957 2015.39,-500.572"/>
<ellipse fill="black" stroke="black" stroke-width="2" cx="2019.43" cy="-500.075" rx="4.00001" ry="4.00001"/>
<text text-anchor="middle" x="1708" y="-522.8" font-family="Times,serif" font-size="14.00">19</text>
</g>
<!-- nodeCluster158&#45;&gt;nodeCluster157 -->
<g id="edge10" class="edge"><title>nodeCluster158&#45;&gt;nodeCluster157</title>
<path fill="none" stroke="black" stroke-width="2" stroke-dasharray="1,5" d="M1416.93,-438.047C1501.89,-442.134 1616.4,-447.642 1672.76,-450.353"/>
<ellipse fill="black" stroke="black" stroke-width="2" cx="1676.79" cy="-450.547" rx="4" ry="4"/>
<text text-anchor="middle" x="1509.5" y="-446.8" font-family="Times,serif" font-size="14.00">16</text>
</g>
<!-- nodeCluster37 -->
<g id="node7" class="node"><title>nodeCluster37</title>
</g>
<!-- nodeCluster120 -->
<g id="node8" class="node"><title>nodeCluster120</title>
</g>
<!-- nodeCluster121 -->
<g id="node9" class="node"><title>nodeCluster121</title>
</g>
<!-- nodeCluster120&#45;&gt;nodeCluster121 -->
<g id="edge4" class="edge"><title>nodeCluster120&#45;&gt;nodeCluster121</title>
<path fill="none" stroke="black" stroke-width="2" stroke-dasharray="1,5" d="M1338.14,-117.733C1377.41,-117.392 1453.96,-116.962 1519,-118 1544.96,-118.414 1572.93,-119.15 1599.16,-119.968"/>
<ellipse fill="black" stroke="black" stroke-width="2" cx="1603.24" cy="-120.097" rx="4" ry="4"/>
<text text-anchor="middle" x="1509.5" y="-121.8" font-family="Times,serif" font-size="14.00">2</text>
</g>
<!-- nodeCluster121&#45;&gt;nodeCluster120 -->
<g id="edge13" class="edge"><title>nodeCluster121&#45;&gt;nodeCluster120</title>
<path fill="none" stroke="black" stroke-width="2" stroke-dasharray="1,5" d="M1607.21,-131.698C1573.2,-133.429 1534.94,-134.392 1500,-133 1446.16,-130.856 1383.86,-125.27 1346.22,-121.554"/>
<ellipse fill="black" stroke="black" stroke-width="2" cx="1342.1" cy="-121.142" rx="4" ry="4"/>
<text text-anchor="middle" x="1509.5" y="-137.8" font-family="Times,serif" font-size="14.00">2</text>
</g>
<!-- nodeCluster38 -->
<g id="node10" class="node"><title>nodeCluster38</title>
</g>
<!-- nodeCluster38&#45;&gt;nodeCluster1 -->
<g id="edge16" class="edge"><title>nodeCluster38&#45;&gt;nodeCluster1</title>
<path fill="none" stroke="black" stroke-width="2" stroke-dasharray="1,5" d="M151.605,-343.838C184.44,-400.595 241.129,-487.446 309,-545 362.278,-590.179 438.548,-621.927 482.086,-637.671"/>
<ellipse fill="black" stroke="black" stroke-width="2" cx="486.053" cy="-639.083" rx="4.00001" ry="4.00001"/>
<text text-anchor="middle" x="318.5" y="-559.8" font-family="Times,serif" font-size="14.00">69</text>
</g>
<!-- nodeCluster38&#45;&gt;nodeCluster3 -->
<g id="edge1" class="edge"><title>nodeCluster38&#45;&gt;nodeCluster3</title>
<path fill="none" stroke="black" stroke-width="2" stroke-dasharray="1,5" d="M208.508,-261.363C211.409,-259.973 214.248,-258.519 217,-257 327.951,-195.748 316.467,-119.413 434,-72 467.861,-58.3406 479.488,-67 516,-67 516,-67 516,-67 2106,-67 2296.17,-67 2437.63,-297.078 2484.35,-384.148"/>
<ellipse fill="black" stroke="black" stroke-width="2" cx="2486.32" cy="-387.855" rx="4.00002" ry="4.00002"/>
<text text-anchor="middle" x="1311" y="-70.8" font-family="Times,serif" font-size="14.00">7</text>
</g>
<!-- nodeCluster38&#45;&gt;nodeCluster4 -->
<g id="edge19" class="edge"><title>nodeCluster38&#45;&gt;nodeCluster4</title>
<path fill="none" stroke="black" stroke-width="2" stroke-dasharray="1,5" d="M168.712,-343.606C237.248,-418.184 371.338,-540 516,-540 516,-540 516,-540 1709,-540 1760.6,-540 1773.68,-540.408 1825,-535 1888.97,-528.259 1960.51,-516.115 2015.12,-505.861"/>
<ellipse fill="black" stroke="black" stroke-width="2" cx="2019.13" cy="-505.105" rx="4.00001" ry="4.00001"/>
<text text-anchor="middle" x="1112.5" y="-543.8" font-family="Times,serif" font-size="14.00">28</text>
</g>
<!-- nodeCluster38&#45;&gt;nodeCluster158 -->
<g id="edge2" class="edge"><title>nodeCluster38&#45;&gt;nodeCluster158</title>
<path fill="none" stroke="red" stroke-width="5" stroke-dasharray="1,5" d="M216.733,-340.346C245.559,-354.038 277.834,-367.114 309,-375 474.381,-416.847 973.283,-428.614 1198.06,-431.832"/>
<ellipse fill="red" stroke="red" stroke-width="5" cx="1202.27" cy="-431.891" rx="4" ry="4"/>
<text text-anchor="middle" x="715.5" y="-421.8" font-family="Times,serif" font-size="14.00">60</text>
</g>
<!-- nodeCluster193 -->
<g id="node11" class="node"><title>nodeCluster193</title>
</g>
<!-- nodeCluster38&#45;&gt;nodeCluster193 -->
<g id="edge9" class="edge"><title>nodeCluster38&#45;&gt;nodeCluster193</title>
<path fill="none" stroke="black" stroke-width="2" stroke-dasharray="1,5" d="M203.494,-261.494C208.07,-259.994 212.596,-258.49 217,-257 309.428,-225.73 416.623,-185.731 474.227,-163.928"/>
<ellipse fill="black" stroke="black" stroke-width="2" cx="478.279" cy="-162.392" rx="4.00001" ry="4.00001"/>
<text text-anchor="middle" x="318.5" y="-226.8" font-family="Times,serif" font-size="14.00">3</text>
</g>
<!-- nodeCluster283 -->
<g id="node14" class="node"><title>nodeCluster283</title>
</g>
<!-- nodeCluster38&#45;&gt;nodeCluster283 -->
<g id="edge6" class="edge"><title>nodeCluster38&#45;&gt;nodeCluster283</title>
<path fill="none" stroke="black" stroke-width="2" stroke-dasharray="1,5" d="M216.796,-286.757C302.505,-286.54 423.357,-286.235 481.757,-286.087"/>
<ellipse fill="black" stroke="black" stroke-width="2" cx="478.014" cy="-286.402" rx="4.00013" ry="4.00013"/>
<text text-anchor="middle" x="318.5" y="-290.8" font-family="Times,serif" font-size="14.00">6</text>
</g>
<!-- nodeCluster440 -->
<g id="node16" class="node"><title>nodeCluster440</title>
</g>
<!-- nodeCluster38&#45;&gt;nodeCluster440 -->
<g id="edge24" class="edge"><title>nodeCluster38&#45;&gt;nodeCluster440</title>
<path fill="none" stroke="black" stroke-width="2" stroke-dasharray="1,5" d="M189.7,-343.69C223.635,-368.807 266.378,-396.375 309,-413 345.866,-427.38 388.792,-435.317 425.966,-439.69"/>
<ellipse fill="black" stroke="black" stroke-width="2" cx="430.322" cy="-440.177" rx="4.00001" ry="4.00001"/>
<text text-anchor="middle" x="318.5" y="-422.8" font-family="Times,serif" font-size="14.00">40</text>
</g>
<!-- nodeCluster194 -->
<g id="node12" class="node"><title>nodeCluster194</title>
</g>
<!-- nodeCluster193&#45;&gt;nodeCluster194 -->
<g id="edge20" class="edge"><title>nodeCluster193&#45;&gt;nodeCluster194</title>
<path fill="none" stroke="black" stroke-width="2" stroke-dasharray="1,5" d="M544.228,-141.2C580.35,-132.213 647.578,-116.837 706,-111 740.49,-107.554 778.373,-106.563 812.198,-106.666"/>
<ellipse fill="black" stroke="black" stroke-width="2" cx="816.251" cy="-106.688" rx="4" ry="4"/>
<text text-anchor="middle" x="715.5" y="-114.8" font-family="Times,serif" font-size="14.00">2</text>
</g>
<!-- nodeCluster194&#45;&gt;nodeCluster3 -->
<g id="edge12" class="edge"><title>nodeCluster194&#45;&gt;nodeCluster3</title>
<path fill="none" stroke="black" stroke-width="2" stroke-dasharray="1,5" d="M1007.84,-163.496C1085.86,-203.386 1201.68,-251 1310,-251 1310,-251 1310,-251 2106,-251 2244.45,-251 2390.37,-338.742 2459.72,-386.645"/>
<ellipse fill="black" stroke="black" stroke-width="2" cx="2463.31" cy="-389.147" rx="4.00002" ry="4.00002"/>
<text text-anchor="middle" x="1708" y="-254.8" font-family="Times,serif" font-size="14.00">3</text>
</g>
<!-- nodeCluster194&#45;&gt;nodeCluster158 -->
<g id="edge11" class="edge"><title>nodeCluster194&#45;&gt;nodeCluster158</title>
<path fill="none" stroke="red" stroke-width="5" stroke-dasharray="1,5" d="M984.407,-166.755C1068.12,-235.21 1205.83,-347.821 1272.08,-401.992"/>
<ellipse fill="red" stroke="red" stroke-width="5" cx="1275.58" cy="-404.856" rx="4.00002" ry="4.00002"/>
<text text-anchor="middle" x="1112.5" y="-275.8" font-family="Times,serif" font-size="14.00">3</text>
</g>
<!-- nodeCluster194&#45;&gt;nodeCluster120 -->
<g id="edge7" class="edge"><title>nodeCluster194&#45;&gt;nodeCluster120</title>
<path fill="none" stroke="black" stroke-width="2" stroke-dasharray="1,5" d="M1007.81,-111.88C1093.68,-113.619 1216.68,-116.11 1275.76,-117.306"/>
<ellipse fill="black" stroke="black" stroke-width="2" cx="1272.68" cy="-115.241" rx="4.00053" ry="4.00053"/>
<text text-anchor="middle" x="1112.5" y="-117.8" font-family="Times,serif" font-size="14.00">4</text>
</g>
<!-- nodeCluster194&#45;&gt;nodeCluster193 -->
<g id="edge21" class="edge"><title>nodeCluster194&#45;&gt;nodeCluster193</title>
<path fill="none" stroke="black" stroke-width="2" stroke-dasharray="1,5" d="M820.206,-118.927C734.344,-127.187 611.343,-139.02 552.253,-144.705"/>
<ellipse fill="black" stroke="black" stroke-width="2" cx="548.205" cy="-145.094" rx="4" ry="4"/>
<text text-anchor="middle" x="715.5" y="-132.8" font-family="Times,serif" font-size="14.00">2</text>
</g>
<!-- nodeCluster433 -->
<g id="node13" class="node"><title>nodeCluster433</title>
</g>
<!-- nodeCluster433&#45;&gt;nodeCluster158 -->
<g id="edge14" class="edge"><title>nodeCluster433&#45;&gt;nodeCluster158</title>
<path fill="none" stroke="red" stroke-width="5" stroke-dasharray="1,5" d="M205.837,-247.912C245.403,-271.652 288.263,-296.57 309,-306 362.351,-330.26 376.685,-335.757 434,-348 577.047,-378.555 996.113,-410.951 1198.32,-425.343"/>
<ellipse fill="red" stroke="red" stroke-width="5" cx="1202.32" cy="-425.627" rx="4" ry="4"/>
<text text-anchor="middle" x="715.5" y="-389.8" font-family="Times,serif" font-size="14.00">3</text>
</g>
<!-- nodeCluster284 -->
<g id="node15" class="node"><title>nodeCluster284</title>
</g>
<!-- nodeCluster283&#45;&gt;nodeCluster284 -->
<g id="edge23" class="edge"><title>nodeCluster283&#45;&gt;nodeCluster284</title>
<path fill="none" stroke="black" stroke-width="2" stroke-dasharray="1,5" d="M544.211,-278.975C580.313,-269.697 647.519,-253.851 706,-248 733.448,-245.254 763.047,-244.154 791.038,-243.961"/>
<ellipse fill="black" stroke="black" stroke-width="2" cx="795.276" cy="-243.945" rx="4" ry="4"/>
<text text-anchor="middle" x="715.5" y="-251.8" font-family="Times,serif" font-size="14.00">2</text>
</g>
<!-- nodeCluster284&#45;&gt;nodeCluster158 -->
<g id="edge3" class="edge"><title>nodeCluster284&#45;&gt;nodeCluster158</title>
<path fill="none" stroke="black" stroke-width="2" stroke-dasharray="1,5" d="M1029.56,-301.654C1100.74,-334.992 1189.49,-376.558 1247.85,-403.892"/>
<ellipse fill="black" stroke="black" stroke-width="2" cx="1251.47" cy="-405.589" rx="4.00002" ry="4.00002"/>
<text text-anchor="middle" x="1112.5" y="-344.8" font-family="Times,serif" font-size="14.00">4</text>
</g>
<!-- nodeCluster284&#45;&gt;nodeCluster283 -->
<g id="edge8" class="edge"><title>nodeCluster284&#45;&gt;nodeCluster283</title>
<path fill="none" stroke="black" stroke-width="2" stroke-dasharray="1,5" d="M799.078,-258.96C715.194,-267.029 606.646,-277.472 552.253,-282.705"/>
<ellipse fill="black" stroke="black" stroke-width="2" cx="548.205" cy="-283.094" rx="4" ry="4"/>
<text text-anchor="middle" x="715.5" y="-270.8" font-family="Times,serif" font-size="14.00">2</text>
</g>
</g>
</svg>
