<?xml version="1.0" encoding="UTF-8" standalone="no"?>
<!DOCTYPE svg PUBLIC "-//W3C//DTD SVG 1.1//EN"
 "http://www.w3.org/Graphics/SVG/1.1/DTD/svg11.dtd">
<!-- Generated by graphviz version 2.38.0 (20140413.2041)
 -->
<!-- Title: G Pages: 1 -->
<svg width="2344pt" height="932pt"
 viewBox="0.00 0.00 2344.00 932.00" xmlns="http://www.w3.org/2000/svg" xmlns:xlink="http://www.w3.org/1999/xlink">
<g id="graph0" class="graph" transform="scale(1 1) rotate(0) translate(4 928)">
<title>G</title>
<polygon fill="white" stroke="none" points="-4,4 -4,-928 2340,-928 2340,4 -4,4"/>
<g id="clust1" class="cluster"><title>cluster1</title>
<polygon fill="none" stroke="black" points="0,-8 0,-916 2328,-916 2328,-8 0,-8"/>
<g id="a_clust1_0"><a xlink:href="1" xlink:title="&lt;TABLE&gt;">
<text text-anchor="start" x="1090" y="-896.3" font-family="Times,serif" font-size="14.00"> &lt;&lt;package&gt;&gt; com</text>
</a>
</g>
</g>
<g id="clust2" class="cluster"><title>cluster2</title>
<polygon fill="none" stroke="black" points="8,-16 8,-833 2320,-833 2320,-16 8,-16"/>
<g id="a_clust2_1"><a xlink:href="2" xlink:title="&lt;TABLE&gt;">
<text text-anchor="start" x="1082" y="-813.3" font-family="Times,serif" font-size="14.00"> &lt;&lt;package&gt;&gt; mywm</text>
</a>
</g>
</g>
<g id="clust3" class="cluster"><title>cluster3</title>
<polygon fill="none" stroke="black" points="1019,-411 1019,-794 2312,-794 2312,-411 1019,-411"/>
<g id="a_clust3_2"><a xlink:href="3" xlink:title="&lt;TABLE&gt;">
<text text-anchor="start" x="1585.5" y="-774.3" font-family="Times,serif" font-size="14.00"> &lt;&lt;package&gt;&gt; model</text>
</a>
</g>
</g>
<g id="clust4" class="cluster"><title>cluster157</title>
<polygon fill="none" stroke="black" points="1027,-419 1027,-755 2008,-755 2008,-419 1027,-419"/>
<g id="a_clust4_3"><a xlink:href="157" xlink:title="&lt;TABLE&gt;">
<text text-anchor="start" x="1446.5" y="-735.3" font-family="Times,serif" font-size="14.00"> &lt;&lt;package&gt;&gt; dao</text>
</a>
</g>
</g>
<g id="clust5" class="cluster"><title>cluster158</title>
<polygon fill="none" stroke="black" points="1035,-471 1035,-716 2000,-716 2000,-471 1035,-471"/>
<g id="a_clust5_4"><a xlink:href="158" xlink:title="&lt;TABLE&gt;">
<text text-anchor="start" x="1424.5" y="-696.3" font-family="Times,serif" font-size="14.00"> &lt;&lt;package&gt;&gt; hibernate</text>
</a>
</g>
</g>
<g id="clust6" class="cluster"><title>cluster37</title>
<polygon fill="none" stroke="black" points="16,-88 16,-403 1233.5,-403 1233.5,-88 16,-88"/>
<g id="a_clust6_5"><a xlink:href="37" xlink:title="&lt;TABLE&gt;">
<text text-anchor="start" x="530.75" y="-383.3" font-family="Times,serif" font-size="14.00"> &lt;&lt;package&gt;&gt; controller</text>
</a>
</g>
</g>
<g id="clust7" class="cluster"><title>cluster38</title>
<polygon fill="none" stroke="black" points="24,-190 24,-273 217,-273 217,-190 24,-190"/>
<g id="a_clust7_6"><a xlink:href="38" xlink:title="&lt;TABLE&gt;">
<text text-anchor="start" x="36.5" y="-253.3" font-family="Times,serif" font-size="14.00"> &lt;&lt;package&gt;&gt; actions</text>
</a>
</g>
</g>
<g id="clust8" class="cluster"><title>cluster193</title>
<polygon fill="none" stroke="black" points="444.5,-96 444.5,-226 941,-226 941,-96 444.5,-96"/>
<g id="a_clust8_7"><a xlink:href="193" xlink:title="&lt;TABLE&gt;">
<text text-anchor="start" x="602.75" y="-206.3" font-family="Times,serif" font-size="14.00"> &lt;&lt;package&gt;&gt; schedule</text>
</a>
</g>
</g>
<g id="clust9" class="cluster"><title>cluster194</title>
<polygon fill="none" stroke="black" points="745,-104 745,-187 933,-187 933,-104 745,-104"/>
<g id="a_clust9_8"><a xlink:href="194" xlink:title="&lt;TABLE&gt;">
<text text-anchor="start" x="757" y="-167.3" font-family="Times,serif" font-size="14.00"> &lt;&lt;package&gt;&gt; quartz</text>
</a>
</g>
</g>
<g id="clust10" class="cluster"><title>cluster433</title>
<polygon fill="none" stroke="black" points="35,-281 35,-364 206,-364 206,-281 35,-281"/>
<g id="a_clust10_9"><a xlink:href="433" xlink:title="&lt;TABLE&gt;">
<text text-anchor="start" x="47.5" y="-344.3" font-family="Times,serif" font-size="14.00"> &lt;&lt;package&gt;&gt; ajax</text>
</a>
</g>
</g>
<g id="clust11" class="cluster"><title>cluster283</title>
<polygon fill="none" stroke="black" points="444.5,-234 444.5,-364 963,-364 963,-234 444.5,-234"/>
<g id="a_clust11_10"><a xlink:href="283" xlink:title="&lt;TABLE&gt;">
<text text-anchor="start" x="622.75" y="-344.3" font-family="Times,serif" font-size="14.00"> &lt;&lt;package&gt;&gt; report</text>
</a>
</g>
</g>
<g id="clust12" class="cluster"><title>cluster284</title>
<polygon fill="none" stroke="black" points="724,-242 724,-325 955,-325 955,-242 724,-242"/>
<g id="a_clust12_11"><a xlink:href="284" xlink:title="&lt;TABLE&gt;">
<text text-anchor="start" x="736.5" y="-305.3" font-family="Times,serif" font-size="14.00"> &lt;&lt;package&gt;&gt; jasperreport</text>
</a>
</g>
</g>
<!-- nodeCluster1 -->
<g id="node1" class="node"><title>nodeCluster1</title>
</g>
<!-- nodeCluster2 -->
<g id="node2" class="node"><title>nodeCluster2</title>
</g>
<!-- nodeCluster3 -->
<g id="node3" class="node"><title>nodeCluster3</title>
</g>
<!-- nodeCluster157 -->
<g id="node4" class="node"><title>nodeCluster157</title>
</g>
<!-- nodeCluster157&#45;&gt;nodeCluster3 -->
<g id="edge9" class="edge"><title>nodeCluster157&#45;&gt;nodeCluster3</title>
<path fill="none" stroke="black" stroke-width="2" stroke-dasharray="1,5" d="M2008,-467C2092.08,-488.157 2190.79,-513.772 2241.72,-527.047"/>
<ellipse fill="black" stroke="black" stroke-width="2" cx="2245.91" cy="-528.137" rx="4.00001" ry="4.00001"/>
</g>
<!-- nodeCluster158 -->
<g id="node5" class="node"><title>nodeCluster158</title>
</g>
<!-- 247 -->
<g id="node6" class="node"><title>247</title>
<polygon fill="#ffff33" stroke="none" points="1851,-486.5 1851,-511.5 1984,-511.5 1984,-486.5 1851,-486.5"/>
<g id="a_node6_12"><a xlink:href="247" xlink:title="&lt;TABLE&gt;">
<text text-anchor="start" x="1856.5" y="-495.8" font-family="Times,serif" font-size="14.00"> </text>
<text text-anchor="start" x="1861.5" y="-495.8" font-family="Times,serif" font-weight="bold" font-size="14.00">HibernateUtil </text>
</a>
</g>
<polygon fill="none" stroke="black" points="1851,-486.5 1851,-511.5 1984,-511.5 1984,-486.5 1851,-486.5"/>
</g>
<!-- 247&#45;&gt;247 -->
<g id="edge20" class="edge"><title>247:247&#45;&gt;247:247</title>
<path fill="none" stroke="black" stroke-width="2" stroke-dasharray="1,5" d="M1854.41,-502.57C1768.54,-506.581 1664,-505.058 1664,-498 1664,-491.163 1762.11,-489.52 1846.31,-493.071"/>
<ellipse fill="black" stroke="black" stroke-width="2" cx="1850.41" cy="-493.253" rx="4" ry="4"/>
</g>
<!-- 174 -->
<g id="node7" class="node"><title>174</title>
<polygon fill="#ffff33" stroke="none" points="1456.5,-646.5 1456.5,-671.5 1659.5,-671.5 1659.5,-646.5 1456.5,-646.5"/>
<g id="a_node7_13"><a xlink:href="174" xlink:title="&lt;TABLE&gt;">
<text text-anchor="start" x="1462" y="-655.8" font-family="Times,serif" font-size="14.00"> </text>
<text text-anchor="start" x="1467" y="-655.8" font-family="Times,serif" font-weight="bold" font-size="14.00">ProductHibernateDAO </text>
</a>
</g>
<polygon fill="none" stroke="black" points="1456.5,-646.5 1456.5,-671.5 1659.5,-671.5 1659.5,-646.5 1456.5,-646.5"/>
</g>
<!-- 174&#45;&gt;nodeCluster3 -->
<g id="edge38" class="edge"><title>174:174&#45;&gt;nodeCluster3</title>
<path fill="none" stroke="black" stroke-width="2" stroke-dasharray="1,5" d="M1612.94,-648.98C1752.29,-625.236 2126.43,-561.485 2241.71,-541.842"/>
<ellipse fill="black" stroke="black" stroke-width="2" cx="2245.93" cy="-541.124" rx="4.00001" ry="4.00001"/>
</g>
<!-- 174&#45;&gt;nodeCluster157 -->
<g id="edge7" class="edge"><title>174:174&#45;&gt;nodeCluster157</title>
<path fill="none" stroke="black" stroke-width="2" stroke-dasharray="1,5" d="M1651.81,-648.962C1667.19,-645.095 1682.51,-639.65 1696,-632 1781.43,-583.543 1760.15,-519.746 1843,-467 1854.82,-459.477 1869.33,-454.422 1882.33,-451.077"/>
<ellipse fill="black" stroke="black" stroke-width="2" cx="1886.3" cy="-450.134" rx="4.00001" ry="4.00001"/>
</g>
<!-- 174&#45;&gt;247 -->
<g id="edge28" class="edge"><title>174:174&#45;&gt;247:247</title>
<path fill="none" stroke="black" stroke-width="2" stroke-dasharray="1,5" d="M1640.25,-648.951C1659.05,-645.132 1678.64,-639.706 1696,-632 1770.82,-598.78 1770.13,-558.303 1843,-521 1850.84,-516.986 1859.51,-513.527 1868.08,-510.599"/>
<ellipse fill="black" stroke="black" stroke-width="2" cx="1872.09" cy="-509.296" rx="4.00001" ry="4.00001"/>
</g>
<!-- 298 -->
<g id="node8" class="node"><title>298</title>
<polygon fill="#ffff33" stroke="none" points="1051,-538.5 1051,-563.5 1346,-563.5 1346,-538.5 1051,-538.5"/>
<g id="a_node8_14"><a xlink:href="298" xlink:title="&lt;TABLE&gt;">
<text text-anchor="start" x="1056.5" y="-547.8" font-family="Times,serif" font-size="14.00"> </text>
<text text-anchor="start" x="1061.5" y="-547.8" font-family="Times,serif" font-weight="bold" font-size="14.00">HibernateQueryResultDataSource </text>
</a>
</g>
<polygon fill="none" stroke="black" points="1051,-538.5 1051,-563.5 1346,-563.5 1346,-538.5 1051,-538.5"/>
</g>
<!-- 298&#45;&gt;298 -->
<g id="edge8" class="edge"><title>298:298&#45;&gt;298:298</title>
<path fill="none" stroke="black" stroke-width="2" stroke-dasharray="1,5" d="M1054.37,-556.163C957.902,-557.881 864,-555.827 864,-550 864,-544.338 952.659,-542.238 1046.19,-543.7"/>
<ellipse fill="black" stroke="black" stroke-width="2" cx="1050.37" cy="-543.77" rx="4" ry="4"/>
</g>
<!-- 159 -->
<g id="node9" class="node"><title>159</title>
<polygon fill="#ffff33" stroke="none" points="1118,-484.5 1118,-509.5 1279,-509.5 1279,-484.5 1118,-484.5"/>
<g id="a_node9_15"><a xlink:href="159" xlink:title="&lt;TABLE&gt;">
<text text-anchor="start" x="1123.5" y="-493.8" font-family="Times,serif" font-size="14.00"> </text>
<text text-anchor="start" x="1128.5" y="-493.8" font-family="Times,serif" font-weight="bold" font-size="14.00">FactoryHibernate </text>
</a>
</g>
<polygon fill="none" stroke="black" points="1118,-484.5 1118,-509.5 1279,-509.5 1279,-484.5 1118,-484.5"/>
</g>
<!-- 159&#45;&gt;nodeCluster157 -->
<g id="edge23" class="edge"><title>159:159&#45;&gt;nodeCluster157</title>
<path fill="none" stroke="black" stroke-width="2" stroke-dasharray="1,5" d="M1266.66,-486.982C1310.16,-481.344 1368.38,-474.352 1420,-470 1593.22,-455.397 1801.2,-448.297 1882.03,-445.933"/>
<ellipse fill="black" stroke="black" stroke-width="2" cx="1886.35" cy="-445.809" rx="4" ry="4"/>
</g>
<!-- 159&#45;&gt;174 -->
<g id="edge6" class="edge"><title>159:159&#45;&gt;174:174</title>
<path fill="none" stroke="black" stroke-width="2" stroke-dasharray="1,5" d="M1276.76,-497.394C1303.07,-500.974 1331.55,-508.598 1354,-524 1400.39,-555.825 1373.71,-600.041 1420,-632 1429.7,-638.696 1440.66,-643.79 1452.05,-647.649"/>
<ellipse fill="black" stroke="black" stroke-width="2" cx="1456.18" cy="-648.937" rx="4.00001" ry="4.00001"/>
</g>
<!-- 159&#45;&gt;159 -->
<g id="edge35" class="edge"><title>159:159&#45;&gt;159:159</title>
<path fill="none" stroke="black" stroke-width="2" stroke-dasharray="1,5" d="M1121.3,-501.009C1032.93,-504.455 931,-502.785 931,-496 931,-489.42 1026.85,-487.651 1113.24,-490.692"/>
<ellipse fill="black" stroke="black" stroke-width="2" cx="1117.31" cy="-490.842" rx="4" ry="4"/>
</g>
<!-- 177 -->
<g id="node10" class="node"><title>177</title>
<polygon fill="#ffff33" stroke="none" points="1428,-592.5 1428,-617.5 1688,-617.5 1688,-592.5 1428,-592.5"/>
<g id="a_node10_16"><a xlink:href="177" xlink:title="&lt;TABLE&gt;">
<text text-anchor="start" x="1433" y="-601.8" font-family="Times,serif" font-size="14.00"> </text>
<text text-anchor="start" x="1438" y="-601.8" font-family="Times,serif" font-weight="bold" font-size="14.00">PurchaseOrderHibernateDAO </text>
</a>
</g>
<polygon fill="none" stroke="black" points="1428,-592.5 1428,-617.5 1688,-617.5 1688,-592.5 1428,-592.5"/>
</g>
<!-- 159&#45;&gt;177 -->
<g id="edge21" class="edge"><title>159:159&#45;&gt;177:177</title>
<path fill="none" stroke="black" stroke-width="2" stroke-dasharray="1,5" d="M1276.59,-502.162C1302.05,-506.213 1330.03,-512.916 1354,-524 1388.4,-539.906 1385.66,-561.972 1420,-578 1434.1,-584.582 1449.77,-589.498 1465.31,-593.17"/>
<ellipse fill="black" stroke="black" stroke-width="2" cx="1469.52" cy="-594.108" rx="4.00001" ry="4.00001"/>
</g>
<!-- 72 -->
<g id="node11" class="node"><title>72</title>
<polygon fill="#ffff33" stroke="none" points="1449.5,-484.5 1449.5,-509.5 1666.5,-509.5 1666.5,-484.5 1449.5,-484.5"/>
<g id="a_node11_17"><a xlink:href="72" xlink:title="&lt;TABLE&gt;">
<text text-anchor="start" x="1455" y="-493.8" font-family="Times,serif" font-size="14.00"> </text>
<text text-anchor="start" x="1460" y="-493.8" font-family="Times,serif" font-weight="bold" font-size="14.00">CustomerHibernateDAO </text>
</a>
</g>
<polygon fill="none" stroke="black" points="1449.5,-484.5 1449.5,-509.5 1666.5,-509.5 1666.5,-484.5 1449.5,-484.5"/>
</g>
<!-- 159&#45;&gt;72 -->
<g id="edge36" class="edge"><title>159:159&#45;&gt;72:72</title>
<path fill="none" stroke="black" stroke-width="2" stroke-dasharray="1,5" d="M1276.75,-496C1325.62,-496 1389.91,-496 1444.7,-496"/>
<ellipse fill="black" stroke="black" stroke-width="2" cx="1448.71" cy="-496" rx="4" ry="4"/>
</g>
<!-- 171 -->
<g id="node12" class="node"><title>171</title>
<polygon fill="#ffff33" stroke="none" points="1469.5,-538.5 1469.5,-563.5 1646.5,-563.5 1646.5,-538.5 1469.5,-538.5"/>
<g id="a_node12_18"><a xlink:href="171" xlink:title="&lt;TABLE&gt;">
<text text-anchor="start" x="1475" y="-547.8" font-family="Times,serif" font-size="14.00"> </text>
<text text-anchor="start" x="1480" y="-547.8" font-family="Times,serif" font-weight="bold" font-size="14.00">UserHibernateDAO </text>
</a>
</g>
<polygon fill="none" stroke="black" points="1469.5,-538.5 1469.5,-563.5 1646.5,-563.5 1646.5,-538.5 1469.5,-538.5"/>
</g>
<!-- 159&#45;&gt;171 -->
<g id="edge12" class="edge"><title>159:159&#45;&gt;171:171</title>
<path fill="none" stroke="black" stroke-width="2" stroke-dasharray="1,5" d="M1266.91,-506.03C1330.52,-515.639 1426.05,-530.069 1490.14,-539.75"/>
<ellipse fill="black" stroke="black" stroke-width="2" cx="1494.23" cy="-540.368" rx="4.00001" ry="4.00001"/>
</g>
<!-- 177&#45;&gt;nodeCluster3 -->
<g id="edge15" class="edge"><title>177:177&#45;&gt;nodeCluster3</title>
<path fill="none" stroke="black" stroke-width="2" stroke-dasharray="1,5" d="M1654.21,-594.97C1815.92,-579.634 2136.91,-549.191 2241.9,-539.234"/>
<ellipse fill="black" stroke="black" stroke-width="2" cx="2245.96" cy="-538.849" rx="4" ry="4"/>
</g>
<!-- 177&#45;&gt;nodeCluster157 -->
<g id="edge18" class="edge"><title>177:177&#45;&gt;nodeCluster157</title>
<path fill="none" stroke="black" stroke-width="2" stroke-dasharray="1,5" d="M1640.2,-594.94C1659.02,-591.122 1678.63,-585.7 1696,-578 1770.85,-544.831 1769.97,-503.989 1843,-467 1855.28,-460.78 1869.63,-455.996 1882.37,-452.503"/>
<ellipse fill="black" stroke="black" stroke-width="2" cx="1886.6" cy="-451.4" rx="4.00001" ry="4.00001"/>
</g>
<!-- 177&#45;&gt;247 -->
<g id="edge2" class="edge"><title>177:177&#45;&gt;247:247</title>
<path fill="none" stroke="black" stroke-width="2" stroke-dasharray="1,5" d="M1619.58,-594.953C1643.6,-590.732 1671.33,-585.06 1696,-578 1763.37,-558.721 1776.81,-544.016 1843,-521 1853.39,-517.386 1864.7,-513.748 1875.28,-510.466"/>
<ellipse fill="black" stroke="black" stroke-width="2" cx="1879.39" cy="-509.206" rx="4.00001" ry="4.00001"/>
</g>
<!-- 72&#45;&gt;nodeCluster3 -->
<g id="edge4" class="edge"><title>72:72&#45;&gt;nodeCluster3</title>
<path fill="none" stroke="black" stroke-width="2" stroke-dasharray="1,5" d="M1637.93,-506.011C1694.69,-512.874 1773.48,-521.52 1843,-526 1991.12,-535.545 2168.26,-536.316 2241.6,-536.168"/>
<ellipse fill="black" stroke="black" stroke-width="2" cx="2245.61" cy="-536.158" rx="4" ry="4"/>
</g>
<!-- 72&#45;&gt;nodeCluster157 -->
<g id="edge32" class="edge"><title>72:72&#45;&gt;nodeCluster157</title>
<path fill="none" stroke="black" stroke-width="2" stroke-dasharray="1,5" d="M1622.91,-487C1698.52,-476.184 1822.62,-458.43 1882.32,-449.889"/>
<ellipse fill="black" stroke="black" stroke-width="2" cx="1886.35" cy="-449.313" rx="4.00001" ry="4.00001"/>
</g>
<!-- 72&#45;&gt;247 -->
<g id="edge13" class="edge"><title>72:72&#45;&gt;247:247</title>
<path fill="none" stroke="black" stroke-width="2" stroke-dasharray="1,5" d="M1664.36,-496.584C1722.76,-496.911 1794.05,-497.309 1846.07,-497.6"/>
<ellipse fill="black" stroke="black" stroke-width="2" cx="1850.25" cy="-497.624" rx="4" ry="4"/>
</g>
<!-- 171&#45;&gt;nodeCluster3 -->
<g id="edge19" class="edge"><title>171:171&#45;&gt;nodeCluster3</title>
<path fill="none" stroke="black" stroke-width="2" stroke-dasharray="1,5" d="M1644.24,-548.353C1801.52,-545.277 2133.68,-538.783 2241.45,-536.676"/>
<ellipse fill="black" stroke="black" stroke-width="2" cx="2245.7" cy="-536.592" rx="4" ry="4"/>
</g>
<!-- 171&#45;&gt;nodeCluster157 -->
<g id="edge5" class="edge"><title>171:171&#45;&gt;nodeCluster157</title>
<path fill="none" stroke="black" stroke-width="2" stroke-dasharray="1,5" d="M1619.79,-540.979C1643.72,-536.746 1671.39,-531.06 1696,-524 1763.36,-504.675 1776.72,-489.731 1843,-467 1855.82,-462.605 1870.05,-458.229 1882.56,-454.551"/>
<ellipse fill="black" stroke="black" stroke-width="2" cx="1886.65" cy="-453.36" rx="4.00001" ry="4.00001"/>
</g>
<!-- 171&#45;&gt;247 -->
<g id="edge1" class="edge"><title>171:171&#45;&gt;247:247</title>
<path fill="none" stroke="black" stroke-width="2" stroke-dasharray="1,5" d="M1622.27,-540.942C1684.72,-531.859 1780.76,-517.89 1846.21,-508.369"/>
<ellipse fill="black" stroke="black" stroke-width="2" cx="1850.48" cy="-507.748" rx="4.00001" ry="4.00001"/>
</g>
<!-- nodeCluster37 -->
<g id="node13" class="node"><title>nodeCluster37</title>
</g>
<!-- nodeCluster38 -->
<g id="node14" class="node"><title>nodeCluster38</title>
</g>
<!-- nodeCluster38&#45;&gt;nodeCluster1 -->
<g id="edge26" class="edge"><title>nodeCluster38&#45;&gt;nodeCluster1</title>
<path fill="none" stroke="black" stroke-width="2" stroke-dasharray="1,5" d="M213.275,-272.891C214.553,-274.24 215.796,-275.61 217,-277 372.92,-457.118 451.42,-745.351 472.539,-832.929"/>
<ellipse fill="black" stroke="black" stroke-width="2" cx="473.478" cy="-836.876" rx="4.00001" ry="4.00001"/>
</g>
<!-- nodeCluster38&#45;&gt;nodeCluster2 -->
<g id="edge11" class="edge"><title>nodeCluster38&#45;&gt;nodeCluster2</title>
<path fill="none" stroke="black" stroke-width="2" stroke-dasharray="1,5" d="M180.582,-190.334C256.251,-157.738 384.246,-102.602 444.811,-76.5122"/>
<ellipse fill="black" stroke="black" stroke-width="2" cx="448.5" cy="-74.9231" rx="4.00002" ry="4.00002"/>
</g>
<!-- nodeCluster38&#45;&gt;nodeCluster3 -->
<g id="edge3" class="edge"><title>nodeCluster38&#45;&gt;nodeCluster3</title>
<path fill="none" stroke="black" stroke-width="2" stroke-dasharray="1,5" d="M152.651,-190.279C207.868,-147.227 327.147,-62.1319 444.5,-30 613.194,16.1893 663.097,-25 838,-25 838,-25 838,-25 1559,-25 1820.7,-25 2053.04,-253.544 2178.25,-404.946"/>
<ellipse fill="black" stroke="black" stroke-width="2" cx="2180.86" cy="-408.109" rx="4.00002" ry="4.00002"/>
</g>
<!-- nodeCluster38&#45;&gt;174 -->
<g id="edge37" class="edge"><title>nodeCluster38&#45;&gt;174:174</title>
<path fill="none" stroke="red" stroke-width="5" stroke-dasharray="1,5" d="M211.614,-272.966C213.435,-274.308 215.233,-275.654 217,-277 440.592,-447.311 456.447,-568.894 724,-655 1002.72,-744.701 1361.51,-694.559 1499.95,-669.534"/>
<ellipse fill="red" stroke="red" stroke-width="5" cx="1504.02" cy="-668.789" rx="4.00001" ry="4.00001"/>
</g>
<!-- nodeCluster38&#45;&gt;177 -->
<g id="edge25" class="edge"><title>nodeCluster38&#45;&gt;177:177</title>
<path fill="none" stroke="red" stroke-width="5" stroke-dasharray="1,5" d="M210.363,-272.573C212.602,-274.058 214.817,-275.535 217,-277 441.479,-427.614 471.037,-517.683 724,-613 986.776,-712.015 1079.18,-718.714 1354,-661 1385.36,-654.415 1389.47,-641.707 1420,-632 1440.92,-625.348 1464.16,-619.901 1485.47,-615.638"/>
<ellipse fill="red" stroke="red" stroke-width="5" cx="1489.61" cy="-614.83" rx="4.00001" ry="4.00001"/>
</g>
<!-- nodeCluster38&#45;&gt;72 -->
<g id="edge39" class="edge"><title>nodeCluster38&#45;&gt;72:72</title>
<path fill="none" stroke="red" stroke-width="5" stroke-dasharray="1,5" d="M216.817,-266.894C412.604,-369.796 853.965,-595.896 1019,-632 1091.72,-647.91 1289.07,-668.415 1354,-632 1403.06,-604.483 1373.93,-556.282 1420,-524 1429.1,-517.622 1439.32,-512.626 1449.98,-508.723"/>
<ellipse fill="red" stroke="red" stroke-width="5" cx="1454.02" cy="-507.354" rx="4.00001" ry="4.00001"/>
</g>
<!-- nodeCluster38&#45;&gt;171 -->
<g id="edge24" class="edge"><title>nodeCluster38&#45;&gt;171:171</title>
<path fill="none" stroke="red" stroke-width="5" stroke-dasharray="1,5" d="M213.305,-272.806C368.715,-368.146 670.919,-552.133 724,-574 848.983,-625.488 884.846,-631.431 1019,-648 1092.88,-657.125 1285.65,-677.497 1354,-648 1393.26,-631.058 1382.63,-598.78 1420,-578 1433.74,-570.362 1449.28,-564.794 1464.85,-560.738"/>
<ellipse fill="red" stroke="red" stroke-width="5" cx="1469.1" cy="-559.701" rx="4.00001" ry="4.00001"/>
</g>
<!-- nodeCluster193 -->
<g id="node15" class="node"><title>nodeCluster193</title>
</g>
<!-- nodeCluster38&#45;&gt;nodeCluster193 -->
<g id="edge16" class="edge"><title>nodeCluster38&#45;&gt;nodeCluster193</title>
<path fill="none" stroke="black" stroke-width="2" stroke-dasharray="1,5" d="M216.995,-198.278C292.033,-184.425 392.04,-165.962 443.947,-156.379"/>
<ellipse fill="black" stroke="black" stroke-width="2" cx="441.582" cy="-158.596" rx="4.00022" ry="4.00022"/>
</g>
<!-- nodeCluster283 -->
<g id="node18" class="node"><title>nodeCluster283</title>
</g>
<!-- nodeCluster38&#45;&gt;nodeCluster283 -->
<g id="edge10" class="edge"><title>nodeCluster38&#45;&gt;nodeCluster283</title>
<path fill="none" stroke="black" stroke-width="2" stroke-dasharray="1,5" d="M216.995,-228.889C292.033,-238.964 392.04,-252.391 443.947,-259.361"/>
<ellipse fill="black" stroke="black" stroke-width="2" cx="440.57" cy="-258.722" rx="4.00012" ry="4.00012"/>
</g>
<!-- nodeCluster194 -->
<g id="node16" class="node"><title>nodeCluster194</title>
</g>
<!-- nodeCluster193&#45;&gt;nodeCluster194 -->
<g id="edge30" class="edge"><title>nodeCluster193&#45;&gt;nodeCluster194</title>
<path fill="none" stroke="black" stroke-width="2" stroke-dasharray="1,5" d="M506.788,-152.268C554.653,-152.497 658.345,-147.498 737.043,-141.794"/>
<ellipse fill="black" stroke="black" stroke-width="2" cx="741.07" cy="-141.498" rx="4" ry="4"/>
</g>
<!-- nodeCluster194&#45;&gt;nodeCluster3 -->
<g id="edge22" class="edge"><title>nodeCluster194&#45;&gt;nodeCluster3</title>
<path fill="none" stroke="black" stroke-width="2" stroke-dasharray="1,5" d="M932.72,-120.077C1036.56,-111.453 1209.29,-104.59 1354,-135 1604.23,-187.583 1869.98,-311.285 2051.55,-407.5"/>
<ellipse fill="black" stroke="black" stroke-width="2" cx="2055.25" cy="-409.465" rx="4.00002" ry="4.00002"/>
</g>
<!-- nodeCluster194&#45;&gt;174 -->
<g id="edge29" class="edge"><title>nodeCluster194&#45;&gt;174:174</title>
<path fill="none" stroke="red" stroke-width="5" stroke-dasharray="1,5" d="M921.473,-186.73C937.585,-201.619 952.683,-218.921 963,-238 1047.13,-393.581 888.256,-512.881 1019,-632 1161.46,-761.797 1423.02,-699.778 1520.27,-670.408"/>
<ellipse fill="red" stroke="red" stroke-width="5" cx="1524.26" cy="-669.186" rx="4.00001" ry="4.00001"/>
</g>
<!-- nodeCluster194&#45;&gt;nodeCluster37 -->
<g id="edge17" class="edge"><title>nodeCluster194&#45;&gt;nodeCluster37</title>
<path fill="none" stroke="black" stroke-width="2" stroke-dasharray="1,5" d="M932.991,-139.624C1008.34,-147.423 1110.34,-157.98 1162.95,-163.424"/>
<ellipse fill="black" stroke="black" stroke-width="2" cx="1167.19" cy="-163.863" rx="4" ry="4"/>
</g>
<!-- nodeCluster194&#45;&gt;nodeCluster193 -->
<g id="edge31" class="edge"><title>nodeCluster194&#45;&gt;nodeCluster193</title>
<path fill="none" stroke="black" stroke-width="2" stroke-dasharray="1,5" d="M745.246,-129.188C669.85,-131.984 567.656,-138.304 515.01,-143.879"/>
<ellipse fill="black" stroke="black" stroke-width="2" cx="510.763" cy="-144.35" rx="4.00001" ry="4.00001"/>
</g>
<!-- nodeCluster433 -->
<g id="node17" class="node"><title>nodeCluster433</title>
</g>
<!-- nodeCluster433&#45;&gt;174 -->
<g id="edge27" class="edge"><title>nodeCluster433&#45;&gt;174:174</title>
<path fill="none" stroke="red" stroke-width="5" stroke-dasharray="1,5" d="M144.346,-363.679C187.334,-459.498 289.074,-650.529 444.5,-727 535.175,-771.613 1254.29,-743.407 1354,-727 1418.33,-716.415 1489.67,-688.236 1528.63,-671.343"/>
<ellipse fill="red" stroke="red" stroke-width="5" cx="1532.31" cy="-669.729" rx="4.00002" ry="4.00002"/>
</g>
<!-- nodeCluster284 -->
<g id="node19" class="node"><title>nodeCluster284</title>
</g>
<!-- nodeCluster283&#45;&gt;nodeCluster284 -->
<g id="edge33" class="edge"><title>nodeCluster283&#45;&gt;nodeCluster284</title>
<path fill="none" stroke="black" stroke-width="2" stroke-dasharray="1,5" d="M506.788,-268.032C550.486,-271.175 640.713,-273.085 715.973,-273.073"/>
<ellipse fill="black" stroke="black" stroke-width="2" cx="720.137" cy="-273.069" rx="4" ry="4"/>
</g>
<!-- nodeCluster284&#45;&gt;298 -->
<g id="edge34" class="edge"><title>nodeCluster284&#45;&gt;298:298</title>
<path fill="none" stroke="black" stroke-width="2" stroke-dasharray="1,5" d="M863.123,-324.745C890.766,-384.788 943.027,-477.188 1019,-524 1028.49,-529.848 1038.79,-534.577 1049.49,-538.382"/>
<ellipse fill="black" stroke="black" stroke-width="2" cx="1053.56" cy="-539.732" rx="4.00001" ry="4.00001"/>
</g>
<!-- nodeCluster284&#45;&gt;nodeCluster283 -->
<g id="edge14" class="edge"><title>nodeCluster284&#45;&gt;nodeCluster283</title>
<path fill="none" stroke="black" stroke-width="2" stroke-dasharray="1,5" d="M724.019,-260.385C651.632,-258.618 562.857,-258.341 515.01,-260.196"/>
<ellipse fill="black" stroke="black" stroke-width="2" cx="510.784" cy="-260.381" rx="4" ry="4"/>
</g>
</g>
</svg>
