<?xml version="1.0" encoding="UTF-8" standalone="no"?>
<!DOCTYPE svg PUBLIC "-//W3C//DTD SVG 1.1//EN"
 "http://www.w3.org/Graphics/SVG/1.1/DTD/svg11.dtd">
<!-- Generated by graphviz version 2.38.0 (20140413.2041)
 -->
<!-- Title: G Pages: 1 -->
<svg width="626pt" height="621pt"
 viewBox="0.00 0.00 626.00 621.00" xmlns="http://www.w3.org/2000/svg" xmlns:xlink="http://www.w3.org/1999/xlink">
<g id="graph0" class="graph" transform="scale(1 1) rotate(0) translate(4 617)">
<title>G</title>
<polygon fill="white" stroke="none" points="-4,4 -4,-617 622,-617 622,4 -4,4"/>
<g id="clust1" class="cluster"><title>cluster1</title>
<polygon fill="none" stroke="black" points="70,-8 70,-605 610,-605 610,-8 70,-8"/>
<g id="a_clust1_0"><a xlink:href="1" xlink:title="&lt;TABLE&gt;">
<text text-anchor="start" x="269" y="-585.3" font-family="Times,serif" font-size="14.00"> &lt;&lt;package&gt;&gt; org</text>
</a>
</g>
</g>
<g id="clust2" class="cluster"><title>cluster2</title>
<polygon fill="none" stroke="black" points="78,-62 78,-566 602,-566 602,-62 78,-62"/>
<g id="a_clust2_1"><a xlink:href="2" xlink:title="&lt;TABLE&gt;">
<text text-anchor="start" x="256" y="-546.3" font-family="Times,serif" font-size="14.00"> &lt;&lt;package&gt;&gt; dspace</text>
</a>
</g>
</g>
<g id="clust3" class="cluster"><title>cluster3</title>
<polygon fill="none" stroke="black" points="86,-372 86,-527 285,-527 285,-372 86,-372"/>
<g id="a_clust3_2"><a xlink:href="3" xlink:title="&lt;TABLE&gt;">
<text text-anchor="start" x="98.5" y="-507.3" font-family="Times,serif" font-size="14.00"> &lt;&lt;package&gt;&gt; checker</text>
</a>
</g>
</g>
<g id="clust4" class="cluster"><title>cluster2975</title>
<polygon fill="none" stroke="black" points="118,-116 118,-364 594,-364 594,-116 118,-116"/>
<g id="a_clust4_3"><a xlink:href="2975" xlink:title="&lt;TABLE&gt;">
<text text-anchor="start" x="270" y="-344.3" font-family="Times,serif" font-size="14.00"> &lt;&lt;package&gt;&gt; storage</text>
</a>
</g>
</g>
<g id="clust5" class="cluster"><title>cluster5402</title>
<polygon fill="none" stroke="black" points="126,-170 126,-325 586,-325 586,-170 126,-170"/>
<g id="a_clust5_4"><a xlink:href="5402" xlink:title="&lt;TABLE&gt;">
<text text-anchor="start" x="269" y="-305.3" font-family="Times,serif" font-size="14.00"> &lt;&lt;package&gt;&gt; bitstore</text>
</a>
</g>
</g>
<!-- nodeCluster1 -->
<g id="node1" class="node"><title>nodeCluster1</title>
</g>
<!-- nodeCluster2 -->
<g id="node2" class="node"><title>nodeCluster2</title>
</g>
<!-- nodeCluster3 -->
<g id="node3" class="node"><title>nodeCluster3</title>
</g>
<!-- 931 -->
<g id="node4" class="node"><title>931</title>
<polygon fill="#ffff33" stroke="none" points="117,-384 117,-430 254,-430 254,-384 117,-384"/>
<g id="a_node4_5"><a xlink:href="931" xlink:title="&lt;TABLE&gt;">
<text text-anchor="start" x="122.5" y="-414.8" font-family="Times,serif" font-size="14.00"> </text>
<text text-anchor="start" x="127.5" y="-414.8" font-family="Times,serif" font-weight="bold" font-size="14.00">BitstreamDAO </text>
</a>
</g>
<g id="a_node4_6"><a xlink:href="991" xlink:title="&lt;TABLE&gt;">
<text text-anchor="start" x="122.5" y="-392.8" font-family="Times,serif" font-size="14.00">getBitstream</text>
</a>
</g>
<polygon fill="black" stroke="black" points="117.5,-407 117.5,-407 254.5,-407 254.5,-407 117.5,-407"/>
<polygon fill="none" stroke="black" points="117,-384 117,-430 254,-430 254,-384 117,-384"/>
</g>
<!-- 4133 -->
<g id="node8" class="node"><title>4133</title>
<polygon fill="#ffff33" stroke="none" points="337,-197.5 337,-264.5 570,-264.5 570,-197.5 337,-197.5"/>
<g id="a_node8_7"><a xlink:href="4133" xlink:title="&lt;TABLE&gt;">
<text text-anchor="start" x="342.5" y="-248.8" font-family="Times,serif" font-size="14.00"> </text>
<text text-anchor="start" x="347.5" y="-248.8" font-family="Times,serif" font-weight="bold" text-decoration="underline" font-size="14.00" fill="red">BitstreamStorageManager</text>
<text text-anchor="start" x="559.5" y="-248.8" font-family="Times,serif" font-weight="bold" font-size="14.00"> </text>
</a>
</g>
<g id="a_node8_8"><a xlink:href="5407" xlink:title="&lt;TABLE&gt;">
<text text-anchor="start" x="342.5" y="-226.8" font-family="Times,serif" font-size="14.00">cleanup</text>
</a>
</g>
<g id="a_node8_9"><a xlink:href="4134" xlink:title="&lt;TABLE&gt;">
<text text-anchor="start" x="342.5" y="-205.8" font-family="Times,serif" font-size="14.00">retrieve</text>
</a>
</g>
<polygon fill="black" stroke="black" points="337.5,-241 337.5,-241 570.5,-241 570.5,-241 337.5,-241"/>
<polygon fill="none" stroke="black" points="337,-197.5 337,-264.5 570,-264.5 570,-197.5 337,-197.5"/>
</g>
<!-- 931&#45;&gt;4133 -->
<g id="edge1" class="edge"><title>931:991&#45;&gt;4133:4133</title>
<path fill="none" stroke="red" stroke-width="5" d="M252.5,-396C323.623,-396 270.507,-265.719 329.497,-252.996"/>
<polygon fill="red" stroke="red" stroke-width="5" points="329.983,-257.345 339.5,-252 329.116,-248.638 329.983,-257.345"/>
</g>
<!-- 931&#45;&gt;4133 -->
<g id="edge2" class="edge"><title>931:991&#45;&gt;4133:4134</title>
<path fill="none" stroke="red" stroke-width="5" d="M252.5,-396C340.406,-396 255.42,-224.025 329.144,-209.918"/>
<polygon fill="red" stroke="red" stroke-width="5" points="329.925,-214.241 339.5,-209 329.153,-205.525 329.925,-214.241"/>
</g>
<!-- nodeCluster2975 -->
<g id="node5" class="node"><title>nodeCluster2975</title>
</g>
<!-- nodeCluster5402 -->
<g id="node6" class="node"><title>nodeCluster5402</title>
</g>
<!-- 5403 -->
<g id="node7" class="node"><title>5403</title>
<polygon fill="#ffff33" stroke="none" points="142,-182 142,-228 229,-228 229,-182 142,-182"/>
<g id="a_node7_10"><a xlink:href="5403" xlink:title="&lt;TABLE&gt;">
<text text-anchor="start" x="147.5" y="-212.8" font-family="Times,serif" font-size="14.00"> </text>
<text text-anchor="start" x="152.5" y="-212.8" font-family="Times,serif" font-weight="bold" font-size="14.00">Cleanup </text>
</a>
</g>
<g id="a_node7_11"><a xlink:href="5405" xlink:title="&lt;TABLE&gt;">
<text text-anchor="start" x="147.5" y="-190.8" font-family="Times,serif" font-size="14.00">main</text>
</a>
</g>
<polygon fill="black" stroke="black" points="142.5,-205 142.5,-205 229.5,-205 229.5,-205 142.5,-205"/>
<polygon fill="none" stroke="black" points="142,-182 142,-228 229,-228 229,-182 142,-182"/>
</g>
<!-- 5403&#45;&gt;5403 -->
<g id="edge4" class="edge"><title>5403:5403&#45;&gt;5403:5403</title>
<path fill="none" stroke="black" stroke-width="2" d="M145.403,-220.179C81.51,-224.67 0,-223.277 0,-216 0,-209.106 73.14,-207.493 135.163,-211.16"/>
<polygon fill="black" stroke="black" stroke-width="2" points="135.198,-214.669 145.403,-211.821 135.649,-207.684 135.198,-214.669"/>
</g>
<!-- 5403&#45;&gt;4133 -->
<g id="edge5" class="edge"><title>5403:5405&#45;&gt;4133:4133</title>
<path fill="none" stroke="red" stroke-width="5" d="M227.5,-194C279.943,-194 283.225,-244.764 329.331,-251.308"/>
<polygon fill="red" stroke="red" stroke-width="5" points="329.226,-255.686 339.5,-252 329.82,-246.956 329.226,-255.686"/>
</g>
<!-- 5403&#45;&gt;4133 -->
<g id="edge6" class="edge"><title>5403:5405&#45;&gt;4133:5407</title>
<path fill="none" stroke="red" stroke-width="5" d="M227.5,-194C276.212,-194 285.989,-225.246 329.377,-229.518"/>
<polygon fill="red" stroke="red" stroke-width="5" points="329.303,-233.895 339.5,-230 329.719,-225.155 329.303,-233.895"/>
</g>
<!-- 4133&#45;&gt;4133 -->
<g id="edge3" class="edge"><title>4133:4133&#45;&gt;4133:4133</title>
<path fill="none" stroke="black" stroke-width="2" d="M340.257,-258.209C266.353,-259.844 195,-257.774 195,-252 195,-246.496 259.821,-244.358 329.888,-245.586"/>
<polygon fill="black" stroke="black" stroke-width="2" points="330.189,-249.092 340.257,-245.791 330.328,-242.094 330.189,-249.092"/>
</g>
</g>
</svg>
